<?xml version="1.0" encoding="UTF-8"?>
<svg width="600" height="400" viewBox="0 0 600 400" xmlns="http://www.w3.org/2000/svg">
    <!-- Designer Blouse Pattern -->
    <defs>
        <pattern id="pattern-2" patternUnits="userSpaceOnUse" width="30" height="30">
            <path d="M0 15h30M15 0v30" stroke="currentColor" stroke-width="0.5" opacity="0.1"/>
            <circle cx="15" cy="15" r="2" fill="currentColor" opacity="0.1"/>
        </pattern>
    </defs>
    
    <!-- Background -->
    <rect width="600" height="400" fill="#1A1A1A"/>
    <rect width="600" height="400" fill="url(#pattern-2)"/>
    
    <!-- Decorative Frame -->
    <rect x="40" y="40" width="520" height="320" 
          stroke="#D4AF37" stroke-width="1.5" fill="none"/>
    <rect x="30" y="30" width="540" height="340" 
          stroke="#D4AF37" stroke-width="0.5" fill="none"/>
    
    <!-- Blouse Design Illustration -->
    <g stroke="#D4AF37" fill="none">
        <!-- Main Outline -->
        <path d="M200 100H400V300H200V100Z" stroke-width="2"/>
        
        <!-- Neckline -->
        <path d="M250 100C300 130 350 130 400 100" 
              stroke-width="1.5"/>
        
        <!-- Sleeve Pattern -->
        <path d="M200 150C150 200 150 250 200 300M400 150C450 200 450 250 400 300" 
              stroke-width="1.5"/>
        
        <!-- Embroidery Details -->
        <g opacity="0.8">
            <path d="M270 120C290 140 310 140 330 120"/>
            <path d="M270 140C290 160 310 160 330 140"/>
            <path d="M250 200C270 220 290 220 310 200"/>
            <path d="M290 200C310 220 330 220 350 200"/>
        </g>
        
        <!-- Decorative Elements -->
        <circle cx="300" cy="200" r="30" stroke-width="1"/>
        <circle cx="300" cy="200" r="20" stroke-width="1"/>
        <path d="M280 200L320 200M300 180L300 220" 
              stroke-width="1"/>
    </g>
</svg>
