<?xml version="1.0" encoding="UTF-8"?>
<svg width="600" height="400" viewBox="0 0 600 400" xmlns="http://www.w3.org/2000/svg">
    <!-- Elegant Saree Design -->
    <defs>
        <pattern id="pattern-1" patternUnits="userSpaceOnUse" width="20" height="20">
            <path d="M0 10h20M10 0v20" stroke="currentColor" stroke-width="0.5" opacity="0.1"/>
        </pattern>
    </defs>
    
    <!-- Background -->
    <rect width="600" height="400" fill="#1A1A1A"/>
    <rect width="600" height="400" fill="url(#pattern-1)"/>
    
    <!-- Decorative Border -->
    <rect x="20" y="20" width="560" height="360" 
          stroke="#D4AF37" stroke-width="2" fill="none"/>
    
    <!-- Saree Draping Illustration -->
    <g stroke="#D4AF37" fill="none">
        <!-- Main Drape -->
        <path d="M200 50C300 100 400 50 500 150C400 250 300 200 200 250C300 300 400 250 500 350" 
              stroke-width="2"/>
              
        <!-- Pleats -->
        <path d="M150 100C250 150 350 100 450 200M150 150C250 200 350 150 450 250M150 200C250 250 350 200 450 300" 
              stroke-width="1" opacity="0.6"/>
              
        <!-- Embellishments -->
        <circle cx="300" cy="200" r="5"/>
        <circle cx="350" cy="150" r="5"/>
        <circle cx="250" cy="250" r="5"/>
        <circle cx="400" cy="200" r="5"/>
    </g>
</svg>
