<?xml version="1.0" encoding="UTF-8"?>
<svg width="0" height="0" viewBox="0 0 24 24" xmlns="http://www.w3.org/2000/svg">
    <!-- Perfect Fit Icon -->
    <symbol id="icon-fit" viewBox="0 0 24 24">
        <path d="M12 2L14 6L18 8L14 10L12 14L10 10L6 8L10 6L12 2Z" 
              stroke="currentColor" stroke-width="1" fill="none"/>
        <path d="M12 16L13 18L15 19L13 20L12 22L11 20L9 19L11 18L12 16Z" 
              stroke="currentColor" stroke-width="1" opacity="0.6"/>
        <circle cx="12" cy="8" r="2" 
                stroke="currentColor" stroke-width="1" opacity="0.4"/>
    </symbol>

    <!-- Premium Quality Icon -->
    <symbol id="icon-premium" viewBox="0 0 24 24">
        <path d="M12 2L15 8L22 9L17 14L18 21L12 18L6 21L7 14L2 9L9 8L12 2Z" 
              stroke="currentColor" stroke-width="1" fill="none"/>
        <path d="M12 6L13.5 9L17 9.5L14.5 12L15 15.5L12 14L9 15.5L9.5 12L7 9.5L10.5 9L12 6Z" 
              stroke="currentColor" stroke-width="1" opacity="0.6"/>
        <circle cx="12" cy="12" r="2" 
                stroke="currentColor" stroke-width="1" opacity="0.4"/>
    </symbol>

    <!-- Expert Craftsmanship Icon -->
    <symbol id="icon-expertise" viewBox="0 0 24 24">
        <path d="M7 21L17 21C19.2091 21 21 19.2091 21 17L21 7C21 4.79086 19.2091 3 17 3L7 3C4.79086 3 3 4.79086 3 7L3 17C3 19.2091 4.79086 21 7 21Z" 
              stroke="currentColor" stroke-width="1" fill="none"/>
        <path d="M12 8L16 12L12 16L8 12L12 8Z" 
              stroke="currentColor" stroke-width="1" opacity="0.6"/>
        <circle cx="12" cy="12" r="2" 
                stroke="currentColor" stroke-width="1" opacity="0.4"/>
    </symbol>

    <!-- Traditional Techniques Icon -->
    <symbol id="icon-craft" viewBox="0 0 24 24">
        <path d="M12 22C17.5228 22 22 17.5228 22 12C22 6.47715 17.5228 2 12 2C6.47715 2 2 6.47715 2 12C2 17.5228 6.47715 22 12 22Z" 
              stroke="currentColor" stroke-width="1" fill="none"/>
        <path d="M12 2V7M12 17V22M2 12H7M17 12H22M4.93 4.93L8.76 8.76M15.24 15.24L19.07 19.07M4.93 19.07L8.76 15.24M15.24 8.76L19.07 4.93" 
              stroke="currentColor" stroke-width="1" opacity="0.6"/>
        <circle cx="12" cy="12" r="5" 
                stroke="currentColor" stroke-width="1" opacity="0.4"/>
    </symbol>

    <!-- Decorative Elements -->
    <symbol id="icon-decorative" viewBox="0 0 24 24">
        <path d="M12 2L14 6L18 8L14 10L12 14L10 10L6 8L10 6L12 2Z" 
              stroke="currentColor" stroke-width="1" fill="none"/>
        <circle cx="12" cy="8" r="2" 
                stroke="currentColor" stroke-width="1" opacity="0.6"/>
        <path d="M12 12L13 14L15 15L13 16L12 18L11 16L9 15L11 14L12 12Z" 
              stroke="currentColor" stroke-width="1" opacity="0.4"/>
    </symbol>
</svg>
